<svg width="12" height="12" viewBox="0 0 12 12" fill="none" xmlns="http://www.w3.org/2000/svg">
<path d="M4.4775 1.19995C3.61594 1.19995 3.05344 1.65558 2.655 2.68495L2.4975 3.11995H1.56C0.699375 3.11995 0 3.82589 0 4.69495V8.26495C0 9.0412 0.557813 9.68808 1.29 9.81745L1.2225 10.05C1.16906 10.2421 1.20375 10.439 1.3125 10.5824C1.41844 10.7221 1.58906 10.8 1.7775 10.8H2.6625C3.01312 10.8 3.36188 10.5243 3.4575 10.1775L3.555 9.83995H4.89L5.0775 10.2225C5.23688 10.5525 5.60906 10.8 5.9475 10.8H7.7175C8.09437 10.8 8.4 10.4943 8.4 10.1175V8.15995H9.36V4.79995H8.4V3.11995H8.925C9.01594 3.39745 9.25125 3.59995 9.5325 3.59995H10.935C11.3456 3.59995 12 3.27464 12 2.39995C12 1.52526 11.3456 1.19995 10.935 1.19995H9.5325C9.25125 1.19995 9.01594 1.40245 8.925 1.67995H7.965C7.67906 1.38276 7.27688 1.19995 6.8325 1.19995H4.4775ZM4.32 2.63995H6.72C6.8325 2.63995 6.96 2.76745 6.96 2.87995V3.12745C6.92062 3.12464 6.88031 3.11995 6.84 3.11995H3.9075L3.99 2.84995C4.05937 2.65964 4.245 2.63995 4.32 2.63995ZM11.04 4.07995C10.7503 4.07995 10.4672 4.28058 10.1925 4.47745C10.0772 4.55995 9.9525 4.65464 9.84 4.71745V8.24995C9.94687 8.31089 10.0603 8.3962 10.17 8.47495C10.4466 8.67558 10.7362 8.87995 11.04 8.87995H11.76C11.8931 8.87995 12 8.77308 12 8.63995V4.31995C12 4.18683 11.8931 4.07995 11.76 4.07995H11.04ZM1.92 5.03995H4.32V6.47995H1.92V5.03995Z" fill="#58A0C8"/>
</svg>
