<svg width="12" height="12" viewBox="0 0 12 12" fill="none" xmlns="http://www.w3.org/2000/svg">
<path d="M4.84615 1.38464C4.51803 1.38464 4.30168 1.51806 4.19712 1.70195L3.60577 2.76926H2.76923C2.76923 2.51505 2.5619 2.30772 2.30769 2.30772H1.38462C1.13041 2.30772 0.923077 2.51505 0.923077 2.76926V2.8558C0.385818 3.0469 0 3.55171 0 4.15387V8.82695C0 10.0691 1.00781 11.077 2.25 11.077H9.75C10.9922 11.077 12 10.0691 12 8.82695V5.01926C12 3.77707 10.9922 2.76926 9.75 2.76926H9.31731L8.72596 1.70195C8.62139 1.51806 8.39062 1.38464 8.07692 1.38464H4.84615ZM1.84615 3.00003C2.22837 3.00003 2.53846 3.31012 2.53846 3.69234C2.53846 4.07455 2.22837 4.38464 1.84615 4.38464C1.46394 4.38464 1.15385 4.07455 1.15385 3.69234C1.15385 3.31012 1.46394 3.00003 1.84615 3.00003ZM6.46154 3.20195C8.26082 3.20195 9.72115 4.66229 9.72115 6.46157C9.72115 8.26085 8.26082 9.72118 6.46154 9.72118C4.66226 9.72118 3.20192 8.26265 3.20192 6.46157C3.20192 4.66048 4.66226 3.20195 6.46154 3.20195ZM6.46154 4.24041C5.23558 4.24041 4.24038 5.23561 4.24038 6.46157C4.24038 7.68753 5.23558 8.68272 6.46154 8.68272C7.6875 8.68272 8.68269 7.68753 8.68269 6.46157C8.68269 5.23561 7.6875 4.24041 6.46154 4.24041Z" fill="#FA3723"/>
</svg>
