<svg width="33" height="32" viewBox="0 0 33 32" fill="none" xmlns="http://www.w3.org/2000/svg">
<path fill-rule="evenodd" clip-rule="evenodd" d="M16.6001 32C25.4367 32 32.6001 24.8366 32.6001 16C32.6001 7.16344 25.4367 0 16.6001 0C7.76354 0 0.600098 7.16344 0.600098 16C0.600098 24.8366 7.76354 32 16.6001 32Z" fill="#58A0C8" fill-opacity="0.12"/>
<path fill-rule="evenodd" clip-rule="evenodd" d="M19.3541 16.3148C19.3541 14.8939 20.5583 14.2397 20.5583 14.2397C20.5583 14.2397 19.769 13.0438 18.5347 13.0438C17.6189 13.0438 17.1332 13.5802 16.5158 13.5802C15.7823 13.5802 15.4028 13.0438 14.4918 13.0438C13.4547 13.0438 11.8003 13.9793 11.8003 16.3148C11.8003 18.5635 13.4345 21.3287 14.6995 21.3287C15.3622 21.3287 15.6558 20.8943 16.5258 20.8943C17.5278 20.8943 17.5784 21.3287 18.3322 21.3287C19.6727 21.3287 20.867 18.492 20.867 18.492C20.867 18.492 19.3541 18.0014 19.3541 16.3148ZM18.324 10.6625C17.3833 10.7393 16.0474 11.7206 16.2296 13.1773C17.4692 13.2231 18.5062 11.8074 18.324 10.6625Z" fill="#58A0C8"/>
</svg>
