<svg width="32" height="32" viewBox="0 0 32 32" fill="none" xmlns="http://www.w3.org/2000/svg">
<path fill-rule="evenodd" clip-rule="evenodd" d="M16 32C24.8366 32 32 24.8366 32 16C32 7.16344 24.8366 0 16 0C7.16344 0 0 7.16344 0 16C0 24.8366 7.16344 32 16 32Z" fill="#58A0C8" fill-opacity="0.12"/>
<path d="M12.4887 10.6668L16.6919 15.0439L17.9346 13.7501C15.7932 12.5389 12.9613 10.9367 12.4887 10.6668ZM11.2752 10.9439C11.2299 11.0495 11.2002 11.1653 11.2002 11.2939V20.4074C11.2002 20.5125 11.2239 20.6095 11.2585 20.7001L15.9523 15.8137L11.2752 10.9439ZM18.8929 14.2928L17.4314 15.8137L18.8814 17.3241C19.7716 16.8201 20.3877 16.471 20.3877 16.471C20.6538 16.3094 20.8029 16.0606 20.7992 15.7897C20.7954 15.5257 20.6416 15.2822 20.3867 15.1376C20.352 15.1179 19.7505 14.7776 18.8929 14.2928ZM16.6919 16.5845L12.52 20.9272C13.2384 20.5187 15.8922 19.0156 17.9231 17.8658L16.6919 16.5845Z" fill="#58A0C8"/>
</svg>
