<svg width="33" height="32" viewBox="0 0 33 32" fill="none" xmlns="http://www.w3.org/2000/svg">
<path fill-rule="evenodd" clip-rule="evenodd" d="M16.7998 32C25.6364 32 32.7998 24.8366 32.7998 16C32.7998 7.16344 25.6364 0 16.7998 0C7.96325 0 0.799805 7.16344 0.799805 16C0.799805 24.8366 7.96325 32 16.7998 32Z" fill="#58A0C8" fill-opacity="0.12"/>
<path fill-rule="evenodd" clip-rule="evenodd" d="M22.3972 12.9709C22.9734 12.621 23.4158 12.0669 23.6243 11.4067C23.085 11.7306 22.4878 11.9659 21.8524 12.0928C21.3435 11.5432 20.6181 11.2 19.8158 11.2C18.2749 11.2 17.0256 12.4658 17.0256 14.0273C17.0256 14.2489 17.0502 14.4648 17.0978 14.6716C14.779 14.5539 12.7224 13.4281 11.3467 11.7174C11.1065 12.1351 10.9687 12.6207 10.9687 13.1389C10.9687 14.1198 11.4613 14.985 12.2099 15.4922C11.7528 15.4776 11.3223 15.3507 10.9461 15.1389C10.9458 15.1505 10.9458 15.1622 10.9458 15.1742C10.9458 16.5443 11.9079 17.687 13.1841 17.9467C12.9502 18.0114 12.7036 18.046 12.4489 18.046C12.2693 18.046 12.0947 18.0284 11.924 17.9953C12.2791 19.1185 13.3099 19.9361 14.5306 19.9587C13.5755 20.7171 12.3726 21.1692 11.0654 21.1692C10.8403 21.1692 10.6182 21.1558 10.3999 21.1292C11.6345 21.9317 13.1008 22.4 14.6771 22.4C19.8092 22.4 22.6158 18.0913 22.6158 14.3548C22.6158 14.2326 22.6131 14.1105 22.6077 13.989C23.1527 13.5908 23.6256 13.0929 23.9999 12.5256C23.4992 12.7506 22.9617 12.9025 22.3972 12.9709Z" fill="#58A0C8"/>
</svg>
