<svg width="33" height="32" viewBox="0 0 33 32" fill="none" xmlns="http://www.w3.org/2000/svg">
<path fill-rule="evenodd" clip-rule="evenodd" d="M16.6001 32C25.4367 32 32.6001 24.8366 32.6001 16C32.6001 7.16344 25.4367 0 16.6001 0C7.76354 0 0.600098 7.16344 0.600098 16C0.600098 24.8366 7.76354 32 16.6001 32Z" fill="black" fill-opacity="0.03"/>
<path fill-rule="evenodd" clip-rule="evenodd" d="M19.3541 16.3149C19.3541 14.894 20.5583 14.2397 20.5583 14.2397C20.5583 14.2397 19.769 13.0438 18.5347 13.0438C17.6189 13.0438 17.1332 13.5803 16.5158 13.5803C15.7823 13.5803 15.4028 13.0438 14.4918 13.0438C13.4547 13.0438 11.8003 13.9794 11.8003 16.3149C11.8003 18.5636 13.4345 21.3288 14.6995 21.3288C15.3622 21.3288 15.6558 20.8944 16.5258 20.8944C17.5278 20.8944 17.5784 21.3288 18.3322 21.3288C19.6727 21.3288 20.867 18.4921 20.867 18.4921C20.867 18.4921 19.3541 18.0014 19.3541 16.3149ZM18.324 10.6626C17.3833 10.7394 16.0474 11.7207 16.2296 13.1774C17.4692 13.2232 18.5062 11.8075 18.324 10.6626Z" fill="black" fill-opacity="0.3"/>
</svg>
