<svg width="32" height="32" viewBox="0 0 32 32" fill="none" xmlns="http://www.w3.org/2000/svg">
<path fill-rule="evenodd" clip-rule="evenodd" d="M16 32C24.8366 32 32 24.8366 32 16C32 7.16344 24.8366 0 16 0C7.16344 0 0 7.16344 0 16C0 24.8366 7.16344 32 16 32Z" fill="black" fill-opacity="0.04"/>
<path fill-rule="evenodd" clip-rule="evenodd" d="M19.6114 11.3267C19.1336 11.3267 18.7455 11.7142 18.7455 12.1934C18.7455 12.6719 19.1336 13.06 19.6114 13.06C20.0899 13.06 20.478 12.6719 20.478 12.1934C20.478 11.7142 20.0899 11.3267 19.6114 11.3267ZM15.9997 18.3831C14.6867 18.3831 13.6179 17.3141 13.6179 15.9997C13.6179 14.686 14.6867 13.6177 15.9997 13.6177C17.3134 13.6177 18.3822 14.686 18.3822 15.9997C18.3822 17.3141 17.3134 18.3831 15.9997 18.3831ZM15.9997 12.2765C13.9478 12.2765 12.278 13.9469 12.278 15.9997C12.278 18.0531 13.9478 19.7236 15.9997 19.7236C18.0524 19.7236 19.7221 18.0531 19.7221 15.9997C19.7221 13.9469 18.0524 12.2765 15.9997 12.2765ZM21.8434 18.0341C21.8368 18.4825 21.8192 18.961 21.7347 19.414C21.5056 20.6465 20.8059 21.396 19.5964 21.7056C19.0407 21.8477 18.449 21.8523 17.8232 21.8562H17.8167C17.5123 21.8582 17.2001 21.8588 16.8624 21.8588C16.0128 21.8588 15.1475 21.8529 14.3097 21.8464L13.7474 21.8424C13.3337 21.8392 12.8481 21.8202 12.3794 21.7011C11.4631 21.468 10.84 20.9548 10.4734 20.132C10.2417 19.609 10.1894 19.031 10.1691 18.5342C10.1645 18.4269 10.1566 18.3254 10.1481 18.2272L10.1403 18.129V13.9195C10.1488 13.8769 10.1592 13.8174 10.1612 13.7486C10.1756 13.2557 10.1959 12.8132 10.3019 12.3904C10.5369 11.457 11.0605 10.8259 11.9036 10.4613C12.4161 10.2394 12.9829 10.1897 13.4699 10.1694C13.5772 10.1648 13.6793 10.1563 13.7775 10.1485L13.8751 10.1406H18.087C18.1217 10.1478 18.1655 10.1544 18.2159 10.1589C18.3586 10.1714 18.5 10.1799 18.6362 10.1877C18.9071 10.2041 19.1624 10.2192 19.3987 10.263C20.0179 10.3795 20.5232 10.6152 20.8989 10.9628C21.2759 11.3129 21.5462 11.7986 21.702 12.4074C21.8414 12.9527 21.8467 13.5346 21.8525 14.1492V14.2022C21.8643 15.4898 21.8617 16.7793 21.8434 18.0341ZM23.1931 14.1905L23.1924 14.1375C23.1865 13.4691 23.18 12.7779 23.0006 12.0749C22.5614 10.3566 21.4009 9.27462 19.6455 8.94602C19.3261 8.8858 19.0158 8.86747 18.7154 8.8498C18.5858 8.8426 18.4627 8.83474 18.3416 8.82427C18.3351 8.82296 18.3292 8.82165 18.3227 8.82034C18.305 8.81772 18.2873 8.81379 18.2683 8.81052L18.2107 8.80005H13.8247L13.8005 8.80201C13.756 8.80529 13.7108 8.80856 13.6669 8.81249C13.5779 8.81969 13.4941 8.82689 13.4156 8.83016C12.8409 8.85372 12.0895 8.92049 11.3715 9.23076C10.137 9.76489 9.34045 10.718 9.00271 12.0631C8.86657 12.6051 8.83908 13.1353 8.82271 13.6747C8.81813 13.695 8.8142 13.7146 8.81028 13.7342L8.7998 13.7925V18.1795L8.80177 18.2037C8.80504 18.2488 8.80897 18.2934 8.8129 18.3379C8.8201 18.4262 8.82664 18.5094 8.82991 18.5886C8.85348 19.1757 8.92351 19.9429 9.24947 20.6767C9.78554 21.8824 10.7281 22.6646 12.0496 22.9997C12.6609 23.1555 13.2723 23.1791 13.737 23.183L14.2999 23.187C15.1396 23.1928 16.0076 23.2 16.8624 23.2C17.2034 23.2 17.5182 23.1987 17.8252 23.1968H17.8318C18.5112 23.1922 19.2141 23.1876 19.9282 23.0043C21.6464 22.5645 22.727 21.4078 23.0523 19.6595C23.1551 19.1057 23.1761 18.5369 23.1833 18.0531C23.2009 16.7878 23.2049 15.4885 23.1931 14.1905Z" fill="black" fill-opacity="0.3"/>
</svg>
