<svg width="32" height="32" viewBox="0 0 32 32" fill="none" xmlns="http://www.w3.org/2000/svg">
<path fill-rule="evenodd" clip-rule="evenodd" d="M16 32C24.8366 32 32 24.8366 32 16C32 7.16344 24.8366 0 16 0C7.16344 0 0 7.16344 0 16C0 24.8366 7.16344 32 16 32Z" fill="black" fill-opacity="0.04"/>
<path d="M12.4887 10.6667L16.6919 15.0438L17.9346 13.7501C15.7932 12.5389 12.9613 10.9366 12.4887 10.6667ZM11.2752 10.9438C11.2299 11.0494 11.2002 11.1653 11.2002 11.2938V20.4074C11.2002 20.5124 11.2239 20.6094 11.2585 20.7001L15.9523 15.8136L11.2752 10.9438ZM18.8929 14.2928L17.4314 15.8136L18.8814 17.324C19.7716 16.82 20.3877 16.4709 20.3877 16.4709C20.6538 16.3093 20.8029 16.0606 20.7992 15.7897C20.7954 15.5257 20.6416 15.2821 20.3867 15.1376C20.352 15.1178 19.7505 14.7776 18.8929 14.2928ZM16.6919 16.5845L12.52 20.9272C13.2384 20.5186 15.8922 19.0156 17.9231 17.8657L16.6919 16.5845Z" fill="black" fill-opacity="0.3"/>
</svg>
