<svg width="33" height="32" viewBox="0 0 33 32" fill="none" xmlns="http://www.w3.org/2000/svg">
<path fill-rule="evenodd" clip-rule="evenodd" d="M16.3999 32C25.2365 32 32.3999 24.8366 32.3999 16C32.3999 7.16344 25.2365 0 16.3999 0C7.56335 0 0.399902 7.16344 0.399902 16C0.399902 24.8366 7.56335 32 16.3999 32Z" fill="black" fill-opacity="0.04"/>
<path fill-rule="evenodd" clip-rule="evenodd" d="M24.0328 11.8434C24.144 11.4725 24.0328 11.2 23.5034 11.2H21.753C21.3079 11.2 21.1028 11.4354 20.9915 11.695C20.9915 11.695 20.1013 13.8647 18.8403 15.274C18.4324 15.682 18.2469 15.8118 18.0244 15.8118C17.9131 15.8118 17.752 15.682 17.752 15.3111V11.8434C17.752 11.3983 17.6229 11.2 17.252 11.2H14.5013C14.2232 11.2 14.0559 11.4065 14.0559 11.6023C14.0559 12.0242 14.6864 12.1215 14.7514 13.3084V15.886C14.7514 16.4512 14.6493 16.5536 14.4268 16.5536C13.8334 16.5536 12.3899 14.3742 11.5339 11.8805C11.3661 11.3957 11.1978 11.2 10.7505 11.2H9.00005C8.49993 11.2 8.3999 11.4354 8.3999 11.695C8.3999 12.1586 8.99333 14.4581 11.163 17.4994C12.6094 19.5763 14.6474 20.7022 16.5018 20.7022C17.6144 20.7022 17.7521 20.4521 17.7521 20.0214V18.4516C17.7521 17.9515 17.8575 17.8517 18.2098 17.8517C18.4694 17.8517 18.9145 17.9815 19.953 18.9829C21.1398 20.1697 21.3355 20.7022 22.0031 20.7022H23.7535C24.2536 20.7022 24.5036 20.4521 24.3594 19.9586C24.2015 19.4668 23.6349 18.7532 22.883 17.9073C22.475 17.4252 21.8631 16.906 21.6776 16.6463C21.418 16.3125 21.4922 16.1642 21.6776 15.8675C21.6776 15.8675 23.8102 12.8633 24.0328 11.8434Z" fill="black" fill-opacity="0.3"/>
</svg>
